<svg width="500" height="500" xmlns="http://www.w3.org/2000/svg">

 <title/>
 <g id="imagebot_2">
  <path fill-rule="evenodd" stroke="#000000" stroke-width="6.7782" fill="#ffffff" d="M250,3.3891 L22.9101,3.3891 C12.1291,3.3891 3.3891,12.1292 3.3891,22.9101 L3.3891,477.09 C3.3891,487.87 12.1292,496.611 22.9101,496.611 L477.09,496.611 C487.871,496.611 496.611,487.87 496.611,477.09 L496.611,22.9101 C496.611,12.1291 487.871,3.3891 477.09,3.3891 L250,3.3891 z" id="imagebot_17"/>
  <path transform="matrix(1.0845, 0, 0, 1.0845, 0.429101, 5.9471)" fill-rule="evenodd" fill="#000000" d="M282.32,240.87 C273.5,254.622 260.072,256.026 260.396,240.87 C260.72,225.75 283.58,180.354 283.58,180.354 C289.305,164.082 297.476,152.994 308.492,146.442 C319.543,139.998 336.463,149.106 349.099,148.962 C361.736,148.782 374.552,140.646 383.587,145.578 C392.587,150.582 398.564,157.962 402.919,171.354 C407.202,184.818 408.679,210.954 409.362,225.426 C409.975,239.826 409.434,250.662 406.77,257.178 C404.106,263.658 397.59,264.594 393.45,264.054 C389.346,263.443 385.71,260.094 382.327,253.758 C382.975,296.922 382.975,330.078 382.327,355.058 C381.679,379.863 382.686,393.903 378.438,401.823 C374.155,409.635 361.194,412.299 356.983,401.823 C352.842,391.203 354.067,360.531 353.563,339.182 C353.059,317.798 353.202,296.739 353.958,274.779 L344.958,274.779 C345.175,313.983 345.03,343.647 344.526,365.355 C344.059,386.918 346.11,397.071 341.971,403.55 C337.723,409.922 324.151,413.487 319.651,403.55 C315.186,393.47 316.014,374.246 313.71,341.235 C311.407,308.006 309.931,265.671 305.899,206.525 L293.946,223.949 C293.947,223.948 291.141,227.152 282.32,240.868 L282.32,240.87 z" id="imagebot_16"/>
  <path transform="matrix(1.0845, 0, 0, 1.0845, 0.429101, 5.9471)" fill-rule="evenodd" fill="#000000" d="M346.84,91.778C360.93,91.778 372.363,103.213 372.363,117.302S360.929,142.826 346.84,142.826S321.317,131.391 321.317,117.302C321.316,103.213 332.75,91.778 346.84,91.778" id="imagebot_15"/>
  <path transform="matrix(1.0845, 0, 0, 1.0845, 0.429101, 5.9471)" fill-rule="evenodd" fill="#000000" d="M330.04999,89.45C329.11199,87.902 328.39399,86.246 327.60099,84.05C326.70099,81.746 324.82999,77.858 325.47799,76.562C326.12399,75.194 326.52099,75.194 331.66899,76.562C336.77999,77.966 349.70399,82.358 356.25699,84.878C362.73699,87.254 367.56199,89.594 370.58499,91.07C373.53599,92.438 373.60799,92.33 373.85999,93.662C373.89699,94.886 372.85199,96.938 371.41299,98.702C369.93599,100.358 367.92099,102.05 365.22199,103.778C359.38999,102.554 353.16099,101.618 345.85299,100.826C338.43699,99.998 326.84499,99.494 321.91399,98.882C316.98199,98.198 315.39799,98.162 316.76599,96.686C318.09699,94.994 322.52399,92.762 330.04999,89.45z" id="imagebot_14"/>
  <path transform="matrix(1.0845, 0, 0, 1.0845, 0.429101, 5.9471)" fill-rule="evenodd" fill="#ffffff" d="M368.45999,98.378C358.12799,94.886 350.17099,92.438 344.05199,90.89C337.89599,89.342 334.11399,88.694 332.17099,89.09C329.43499,84.626 328.53399,81.746 329.07499,80.306C329.61399,78.722 329.75899,78.83 335.73499,80.486C341.71199,82.142 359.02599,88.226 364.89499,90.566C370.54699,92.762 369.64699,93.23 370.25799,94.49C370.76299,95.75 370.29599,97.046 368.45999,98.378z" id="imagebot_13"/>
  <path transform="matrix(1.0845, 0, 0, 1.0845, 0.429101, 5.9471)" fill-rule="evenodd" fill="#000000" d="M127.41,219.66 C121.902,219.696 116.933,219.912 112.109,220.308 C107.285,220.668 102.389,220.272 98.79,221.892 C95.117,223.368 94.038,224.088 90.294,229.596 C86.369,235.14 81.042,244.464 76.109,255.084 C71.105,265.704 64.41,283.561 61.17,292.704 C57.966,301.704 57.857,300.48 57.102,308.868 C56.274,317.112 54.762,333.312 56.311,342.06 C57.786,350.664 61.35,356.352 66.03,360.635 C70.602,364.776 76.255,366.936 83.419,367.115 C83.06,376.007 83.06,382.739 83.419,387.743 C83.635,392.567 83.239,394.835 85.435,396.635 C87.74,398.436 93.175,398.471 96.74,398.688 C100.124,398.868 103.796,398.832 105.668,397.463 C107.324,396.024 106.928,394.799 107.252,389.759 C107.576,384.612 107.72,376.98 107.684,366.719 L206.792,366.719 C206.972,376.98 207.296,384.612 207.764,389.759 C208.16,394.799 207.584,396.024 209.384,397.463 C211.184,398.831 214.748,398.867 218.276,398.688 C221.696,398.471 227.276,398.436 229.616,396.635 C231.848,394.835 231.272,392.568 231.633,387.743 C231.921,382.739 231.921,376.007 231.633,367.115 C238.761,366.935 244.376,364.775 249.021,360.635 C253.593,356.352 257.158,350.663 258.742,342.06 C260.181,333.312 258.67,317.112 257.949,308.868 C257.121,300.48 257.013,301.704 253.881,292.704 C250.57,283.56 243.838,265.704 238.942,255.084 C233.938,244.464 228.61,235.14 224.758,229.596 C220.942,224.088 219.826,223.368 216.262,221.892 C212.483,220.272 207.658,220.668 202.907,220.308 C198.155,219.912 193.151,219.696 187.895,219.66 L127.41,219.66 L127.41,219.66 z" id="imagebot_12"/>
  <path transform="matrix(1.0845, 0, 0, 1.0845, 0.429101, 5.9471)" fill-rule="evenodd" fill="#ffffff" d="M128.06,228.81C123.236,228.559 119.06,228.739 115.099,229.206C111.103,229.674 107.467,229.782 104.587,231.618C101.671,233.309 100.303,235.038 97.711,239.718C94.903,244.399 91.015,253.399 88.423,259.518C85.795,265.422 82.987,271.651 82.339,275.718C81.655,279.642 81.187,282.018 84.391,283.819C87.56,285.583 94.652,286.05 100.951,286.627C107.072,287.023 105.668,287.023 121.183,287.023C136.807,287.059 177.379,287.059 193.183,287.023C208.663,287.023 207.763,287.023 214.099,286.627C220.363,286.051 227.455,285.583 230.66,283.819C233.756,282.018 233.287,279.642 232.711,275.718C231.956,271.651 229.184,265.422 226.628,259.518C223.928,253.399 220.04,244.399 217.34,239.718C214.64,235.038 213.272,233.31 210.464,231.618C207.404,229.782 203.84,229.674 199.916,229.206C195.92,228.738 191.708,228.559 186.992,228.81L128.06,228.81z" id="imagebot_11"/>
  <path transform="matrix(1.0845, 0, 0, 1.0845, 0.429101, 5.9471)" fill-rule="evenodd" fill="#ffffff" d="M85.719,307.20999C96.212,307.20999 104.728,315.72599 104.728,326.21799C104.728,336.71099 96.212,345.22699 85.719,345.22699C75.227,345.22699 66.711,336.71099 66.711,326.21799S75.227,307.20999 85.719,307.20999" id="imagebot_10"/>
  <path transform="matrix(1.0845, 0, 0, 1.0845, 0.429101, 5.9471)" fill-rule="evenodd" fill="#ffffff" d="M229.36,307.20999C239.852,307.20999 248.368,315.72599 248.368,326.21799C248.368,336.71099 239.852,345.22699 229.36,345.22699S210.352,336.71099 210.352,326.21799C210.353,315.72499 218.868,307.20999 229.36,307.20999" id="imagebot_9"/>
  <path transform="matrix(1.0845, 0, 0, 1.0845, 0.429101, 5.9471)" fill-rule="evenodd" fill="#ffffff" d="M157.52,309.29999L130.52,309.29999C124.883,309.29999 120.315,312.36999 120.315,316.15799C120.315,319.94499 124.883,323.01499 130.52,323.01499L184.52,323.01499C190.157,323.01499 194.727,319.94499 194.727,316.15799C194.727,312.36999 190.157,309.29999 184.52,309.29999L157.52,309.29999z" id="imagebot_8"/>
  <path transform="matrix(1.0845, 0, 0, 1.0845, 0.429101, 5.9471)" fill-rule="evenodd" fill="#ffffff" d="M157.52,327.88L130.52,327.88C124.883,327.88 120.315,330.959 120.315,334.756C120.315,338.554 124.883,341.632 130.52,341.632L184.52,341.632C190.157,341.632 194.727,338.554 194.727,334.756C194.727,330.959 190.157,327.88 184.52,327.88L157.52,327.88z" id="imagebot_7"/>
  <title>imagebot_2</title>
 </g>
 <metadata>image/svg+xmlOpenclipartHotel Icon Has Parking Attendant2010-04-23T19:42:16Hotel Icons. Originally done for a request, this set has been re-mixed to simple black and white versions.https://openclipart.org/detail/50527/hotel-icon-has-parking-attendant-by-gerald_gGerald_Gattendantcarhoteliconparkingrequest+completedservicessource+wikitransportation</metadata>
</svg>